<svg width="124" height="30" viewBox="0 0 124 30" fill="none" xmlns="http://www.w3.org/2000/svg">
<path d="M33.958 9.86812H38.701V12.45H33.958V9.86812ZM34.1636 16.5H31.2561V4.6875H39.3177V7.26937H34.1636V16.5Z" fill="#2F302C"/>
<path d="M46.3016 16.7362C44.7842 16.7362 43.5997 16.2581 42.748 15.3019C41.8963 14.3456 41.4705 12.99 41.4705 11.235V4.6875H44.3779V11.1337C44.3779 12.1462 44.5493 12.8719 44.8919 13.3106C45.2443 13.7494 45.724 13.9687 46.3309 13.9687C46.9379 13.9687 47.4127 13.7494 47.7553 13.3106C48.0979 12.8719 48.2693 12.1462 48.2693 11.1337V4.6875H51.1327V11.235C51.1327 12.99 50.7068 14.3456 49.8551 15.3019C49.0035 16.2581 47.8189 16.7362 46.3016 16.7362Z" fill="#2F302C"/>
<path d="M53.9834 16.5V4.6875H58.6823C59.6221 4.6875 60.4297 4.86187 61.1052 5.21062C61.7905 5.55937 62.3191 6.06562 62.6911 6.72937C63.0631 7.38187 63.2491 8.15812 63.2491 9.05812C63.2491 9.94687 63.0631 10.7175 62.6911 11.37C62.3191 12.0112 61.7905 12.5062 61.1052 12.855C60.4297 13.1925 59.6221 13.3612 58.6823 13.3612H55.5986L56.8908 11.9606V16.5H53.9834ZM60.3416 16.5L57.7866 12.1969H60.8849L63.4547 16.5H60.3416ZM56.8908 12.315L55.5986 10.7794H58.5061C59.113 10.7794 59.5634 10.6275 59.857 10.3237C60.1605 10.02 60.3123 9.59812 60.3123 9.05812C60.3123 8.50687 60.1605 8.07937 59.857 7.77562C59.5634 7.47187 59.113 7.32 58.5061 7.32H55.5986L56.8908 5.78437V12.315Z" fill="#2F302C"/>
<path d="M65.7342 16.5V4.6875H68.1277L73.7958 12.5512H72.6651V4.6875H75.5139V16.5H73.1203L67.4522 8.63625H68.5829V16.5H65.7342Z" fill="#2F302C"/>
<path d="M78.4458 16.5V4.6875H81.3532V16.5H78.4458Z" fill="#2F302C"/>
<path d="M86.4908 16.5V7.33687H83.3337V4.6875H92.5407V7.33687H89.3982V16.5H86.4908Z" fill="#2F302C"/>
<path d="M99.0902 16.7362C97.5728 16.7362 96.3883 16.2581 95.5366 15.3019C94.6849 14.3456 94.2591 12.99 94.2591 11.235V4.6875H97.1665V11.1337C97.1665 12.1462 97.3378 12.8719 97.6805 13.3106C98.0329 13.7494 98.5126 13.9687 99.1195 13.9687C99.7265 13.9687 100.201 13.7494 100.544 13.3106C100.887 12.8719 101.058 12.1462 101.058 11.1337V4.6875H103.921V11.235C103.921 12.99 103.495 14.3456 102.644 15.3019C101.792 16.2581 100.608 16.7362 99.0902 16.7362Z" fill="#2F302C"/>
<path d="M106.772 16.5V4.6875H111.471C112.411 4.6875 113.218 4.86187 113.894 5.21062C114.579 5.55937 115.108 6.06562 115.48 6.72937C115.852 7.38187 116.038 8.15812 116.038 9.05812C116.038 9.94687 115.852 10.7175 115.48 11.37C115.108 12.0112 114.579 12.5062 113.894 12.855C113.218 13.1925 112.411 13.3612 111.471 13.3612H108.387L109.679 11.9606V16.5H106.772ZM113.13 16.5L110.575 12.1969H113.674L116.243 16.5H113.13ZM109.679 12.315L108.387 10.7794H111.295C111.902 10.7794 112.352 10.6275 112.646 10.3237C112.949 10.02 113.101 9.59812 113.101 9.05812C113.101 8.50687 112.949 8.07937 112.646 7.77562C112.352 7.47187 111.902 7.32 111.295 7.32H108.387L109.679 5.78437V12.315Z" fill="#2F302C"/>
<path d="M31.8548 28.3687V26.8106L31.9968 27.2606L30.5088 24.4312H31.1892L32.3835 26.7094H32.0017L33.2058 24.4312H33.8323L32.3443 27.2606L32.4912 26.8106V28.3687H31.8548Z" fill="#2F302C"/>
<path d="M36.5874 28.425C36.3198 28.425 36.0734 28.3744 35.8483 28.2731C35.6231 28.1719 35.4273 28.0312 35.2609 27.8512C35.0945 27.6675 34.9656 27.4537 34.8742 27.21C34.7828 26.9625 34.7372 26.6925 34.7372 26.4C34.7372 26.1075 34.7828 25.8394 34.8742 25.5956C34.9656 25.3481 35.0945 25.1344 35.2609 24.9544C35.4273 24.7706 35.6231 24.6281 35.8483 24.5269C36.0734 24.4256 36.3182 24.375 36.5825 24.375C36.85 24.375 37.0948 24.4256 37.3167 24.5269C37.5418 24.6281 37.7376 24.7706 37.904 24.9544C38.0705 25.1344 38.1994 25.3481 38.2907 25.5956C38.3821 25.8394 38.4278 26.1075 38.4278 26.4C38.4278 26.6925 38.3821 26.9625 38.2907 27.21C38.1994 27.4575 38.0705 27.6712 37.904 27.8512C37.7376 28.0312 37.5418 28.1719 37.3167 28.2731C37.0948 28.3744 36.8517 28.425 36.5874 28.425ZM36.5825 27.7837C36.7554 27.7837 36.9153 27.75 37.0622 27.6825C37.209 27.615 37.3363 27.5194 37.4439 27.3956C37.5516 27.2681 37.6348 27.1219 37.6936 26.9569C37.7556 26.7881 37.7866 26.6025 37.7866 26.4C37.7866 26.1975 37.7556 26.0137 37.6936 25.8487C37.6348 25.68 37.5516 25.5337 37.4439 25.41C37.3363 25.2825 37.209 25.185 37.0622 25.1175C36.9153 25.05 36.7554 25.0162 36.5825 25.0162C36.4095 25.0162 36.2496 25.05 36.1028 25.1175C35.9592 25.185 35.8319 25.2825 35.721 25.41C35.6133 25.5337 35.5285 25.68 35.4665 25.8487C35.4077 26.0137 35.3784 26.1975 35.3784 26.4C35.3784 26.5987 35.4077 26.7825 35.4665 26.9512C35.5285 27.12 35.6133 27.2681 35.721 27.3956C35.8287 27.5194 35.9559 27.615 36.1028 27.6825C36.2496 27.75 36.4095 27.7837 36.5825 27.7837Z" fill="#2F302C"/>
<path d="M41.4566 28.425C40.9867 28.425 40.618 28.2731 40.3504 27.9694C40.0861 27.6656 39.9539 27.2269 39.9539 26.6531V24.4312H40.5903V26.625C40.5903 27.03 40.6653 27.3244 40.8154 27.5081C40.9688 27.6919 41.1842 27.7837 41.4615 27.7837C41.7389 27.7837 41.9526 27.6919 42.1027 27.5081C42.2528 27.3244 42.3279 27.03 42.3279 26.625V24.4312H42.9544V26.6531C42.9544 27.2269 42.8206 27.6656 42.5531 27.9694C42.2887 28.2731 41.9233 28.425 41.4566 28.425Z" fill="#2F302C"/>
<path d="M44.7266 28.3687V24.4312H46.1363C46.4398 24.4312 46.6992 24.4875 46.9146 24.6C47.1332 24.7125 47.3013 24.8737 47.4187 25.0837C47.5362 25.2937 47.5949 25.5431 47.5949 25.8319C47.5949 26.1206 47.5362 26.37 47.4187 26.58C47.3013 26.7862 47.1332 26.9456 46.9146 27.0581C46.6992 27.1669 46.4398 27.2212 46.1363 27.2212H45.079L45.3629 26.8894V28.3687H44.7266ZM46.9684 28.3687L46.102 26.94H46.7824L47.6537 28.3687H46.9684ZM45.3629 26.9681L45.079 26.6194H46.1069C46.3876 26.6194 46.598 26.55 46.7384 26.4112C46.8819 26.2725 46.9537 26.0794 46.9537 25.8319C46.9537 25.5806 46.8819 25.3875 46.7384 25.2525C46.598 25.1175 46.3876 25.05 46.1069 25.05H45.079L45.3629 24.69V26.9681Z" fill="#2F302C"/>
<path d="M52.0042 26.2425H53.7124V26.8612H52.0042V26.2425ZM52.058 28.3687H51.4217V24.4312H53.9229V25.0444H52.058V28.3687Z" fill="#2F302C"/>
<path d="M56.8926 28.425C56.4228 28.425 56.054 28.2731 55.7864 27.9694C55.5221 27.6656 55.39 27.2269 55.39 26.6531V24.4312H56.0263V26.625C56.0263 27.03 56.1013 27.3244 56.2514 27.5081C56.4048 27.6919 56.6202 27.7837 56.8975 27.7837C57.1749 27.7837 57.3886 27.6919 57.5388 27.5081C57.6889 27.3244 57.7639 27.03 57.7639 26.625V24.4312H58.3904V26.6531C58.3904 27.2269 58.2566 27.6656 57.9891 27.9694C57.7248 28.2731 57.3593 28.425 56.8926 28.425Z" fill="#2F302C"/>
<path d="M60.7956 28.3687V25.05H59.66V24.4312H62.5674V25.05H61.4319V28.3687H60.7956Z" fill="#2F302C"/>
<path d="M65.3372 28.425C64.8673 28.425 64.4986 28.2731 64.231 27.9694C63.9667 27.6656 63.8345 27.2269 63.8345 26.6531V24.4312H64.4708V26.625C64.4708 27.03 64.5459 27.3244 64.696 27.5081C64.8494 27.6919 65.0647 27.7837 65.3421 27.7837C65.6195 27.7837 65.8332 27.6919 65.9833 27.5081C66.1334 27.3244 66.2085 27.03 66.2085 26.625V24.4312H66.835V26.6531C66.835 27.2269 66.7012 27.6656 66.4336 27.9694C66.1693 28.2731 65.8038 28.425 65.3372 28.425Z" fill="#2F302C"/>
<path d="M68.6072 28.3687V24.4312H70.0169C70.3204 24.4312 70.5798 24.4875 70.7952 24.6C71.0138 24.7125 71.1818 24.8737 71.2993 25.0837C71.4168 25.2937 71.4755 25.5431 71.4755 25.8319C71.4755 26.1206 71.4168 26.37 71.2993 26.58C71.1818 26.7862 71.0138 26.9456 70.7952 27.0581C70.5798 27.1669 70.3204 27.2212 70.0169 27.2212H68.9596L69.2435 26.8894V28.3687H68.6072ZM70.849 28.3687L69.9826 26.94H70.663L71.5343 28.3687H70.849ZM69.2435 26.9681L68.9596 26.6194H69.9875C70.2682 26.6194 70.4786 26.55 70.6189 26.4112C70.7625 26.2725 70.8343 26.0794 70.8343 25.8319C70.8343 25.5806 70.7625 25.3875 70.6189 25.2525C70.4786 25.1175 70.2682 25.05 69.9875 25.05H68.9596L69.2435 24.69V26.9681Z" fill="#2F302C"/>
<path d="M73.6559 26.0681H75.3592V26.67H73.6559V26.0681ZM73.7048 27.7556H75.6382V28.3687H73.0685V24.4312H75.5697V25.0444H73.7048V27.7556Z" fill="#2F302C"/>
<path d="M79.4624 28.3687V24.4312H80.0987V28.3687H79.4624Z" fill="#2F302C"/>
<path d="M81.9066 28.3687V24.4312H82.4303L84.5791 27.4631H84.3197V24.4312H84.9511V28.3687H84.4273L82.2786 25.3369H82.538V28.3687H81.9066Z" fill="#2F302C"/>
<path d="M87.4453 28.3687V25.05H86.3097V24.4312H89.2172V25.05H88.0816V28.3687H87.4453Z" fill="#2F302C"/>
<path d="M91.1631 26.0681H92.8665V26.67H91.1631V26.0681ZM91.2121 27.7556H93.1455V28.3687H90.5758V24.4312H93.077V25.0444H91.2121V27.7556Z" fill="#2F302C"/>
<path d="M94.7359 28.3687V24.4312H96.1456C96.4491 24.4312 96.7085 24.4875 96.9239 24.6C97.1425 24.7125 97.3106 24.8737 97.428 25.0837C97.5455 25.2937 97.6042 25.5431 97.6042 25.8319C97.6042 26.1206 97.5455 26.37 97.428 26.58C97.3106 26.7862 97.1425 26.9456 96.9239 27.0581C96.7085 27.1669 96.4491 27.2212 96.1456 27.2212H95.0883L95.3722 26.8894V28.3687H94.7359ZM96.9777 28.3687L96.1113 26.94H96.7917L97.663 28.3687H96.9777ZM95.3722 26.9681L95.0883 26.6194H96.1162C96.3969 26.6194 96.6073 26.55 96.7477 26.4112C96.8912 26.2725 96.963 26.0794 96.963 25.8319C96.963 25.5806 96.8912 25.3875 96.7477 25.2525C96.6073 25.1175 96.3969 25.05 96.1162 25.05H95.0883L95.3722 24.69V26.9681Z" fill="#2F302C"/>
<path d="M99.1972 28.3687V24.4312H99.8335V28.3687H99.1972Z" fill="#2F302C"/>
<path d="M103.247 28.425C102.979 28.425 102.733 28.3744 102.508 28.2731C102.283 28.1719 102.087 28.0312 101.92 27.8512C101.754 27.6675 101.625 27.4537 101.534 27.21C101.442 26.9625 101.397 26.6925 101.397 26.4C101.397 26.1075 101.442 25.8394 101.534 25.5956C101.625 25.3481 101.754 25.1344 101.92 24.9544C102.087 24.7706 102.283 24.6281 102.508 24.5269C102.733 24.4256 102.978 24.375 103.242 24.375C103.509 24.375 103.754 24.4256 103.976 24.5269C104.201 24.6281 104.397 24.7706 104.563 24.9544C104.73 25.1344 104.859 25.3481 104.95 25.5956C105.042 25.8394 105.087 26.1075 105.087 26.4C105.087 26.6925 105.042 26.9625 104.95 27.21C104.859 27.4575 104.73 27.6712 104.563 27.8512C104.397 28.0312 104.201 28.1719 103.976 28.2731C103.754 28.3744 103.511 28.425 103.247 28.425ZM103.242 27.7837C103.415 27.7837 103.575 27.75 103.722 27.6825C103.868 27.615 103.996 27.5194 104.103 27.3956C104.211 27.2681 104.294 27.1219 104.353 26.9569C104.415 26.7881 104.446 26.6025 104.446 26.4C104.446 26.1975 104.415 26.0137 104.353 25.8487C104.294 25.68 104.211 25.5337 104.103 25.41C103.996 25.2825 103.868 25.185 103.722 25.1175C103.575 25.05 103.415 25.0162 103.242 25.0162C103.069 25.0162 102.909 25.05 102.762 25.1175C102.619 25.185 102.491 25.2825 102.38 25.41C102.273 25.5337 102.188 25.68 102.126 25.8487C102.067 26.0137 102.038 26.1975 102.038 26.4C102.038 26.5987 102.067 26.7825 102.126 26.9512C102.188 27.12 102.273 27.2681 102.38 27.3956C102.488 27.5194 102.615 27.615 102.762 27.6825C102.909 27.75 103.069 27.7837 103.242 27.7837Z" fill="#2F302C"/>
<path d="M106.643 28.3687V24.4312H108.052C108.356 24.4312 108.615 24.4875 108.831 24.6C109.049 24.7125 109.217 24.8737 109.335 25.0837C109.452 25.2937 109.511 25.5431 109.511 25.8319C109.511 26.1206 109.452 26.37 109.335 26.58C109.217 26.7862 109.049 26.9456 108.831 27.0581C108.615 27.1669 108.356 27.2212 108.052 27.2212H106.995L107.279 26.8894V28.3687H106.643ZM108.885 28.3687L108.018 26.94H108.699L109.57 28.3687H108.885ZM107.279 26.9681L106.995 26.6194H108.023C108.304 26.6194 108.514 26.55 108.654 26.4112C108.798 26.2725 108.87 26.0794 108.87 25.8319C108.87 25.5806 108.798 25.3875 108.654 25.2525C108.514 25.1175 108.304 25.05 108.023 25.05H106.995L107.279 24.69V26.9681Z" fill="#2F302C"/>
<path d="M20.5579 3.7504C20.5579 16.0732 11.8651 26.0629 1.1421 26.0629C0.758703 26.0629 0.377901 26.0501 0 26.0249V28.6539C0.378219 28.6765 0.759 28.6879 1.1421 28.6879C13.1267 28.6879 22.8421 17.523 22.8421 3.7504C22.8421 3.75052 22.8421 3.75028 22.8421 3.7504H20.5579C20.5579 3.75052 20.5579 3.75028 20.5579 3.7504Z" fill="#2F302C"/>
<path d="M19.4158 3.75004C19.4158 3.74991 19.4158 3.75016 19.4158 3.75004C19.4158 15.348 11.2344 24.7504 1.1421 24.7504C0.758525 24.7504 0.37771 24.7368 0 24.71V22.0792C0.377237 22.1098 0.758088 22.1254 1.1421 22.1254C9.97284 22.1254 17.1316 13.8986 17.1316 3.7504C17.1316 3.75028 17.1316 3.75052 17.1316 3.7504L19.4158 3.75004Z" fill="#2F302C"/>
<path d="M0 20.7632C0.37694 20.7961 0.757815 20.8129 1.1421 20.8129C9.34207 20.8129 15.9895 13.1737 15.9895 3.7504C15.9895 3.75052 15.9895 3.75028 15.9895 3.7504L13.7053 3.75004C13.7053 3.75016 13.7053 3.74991 13.7053 3.75004C13.7053 11.7236 8.08054 18.1879 1.1421 18.1879C0.75711 18.1879 0.376164 18.168 0 18.129V20.7632Z" fill="#2F302C"/>
<path d="M0 16.8106C0.375644 16.8534 0.756642 16.8754 1.1421 16.8754C7.44977 16.8754 12.5632 10.9991 12.5632 3.7504C12.5632 3.75028 12.5632 3.75052 12.5632 3.7504L10.2789 3.75004C10.2789 3.74991 10.2789 3.75016 10.2789 3.75004C10.2789 9.54902 6.18824 14.2504 1.1421 14.2504C0.755316 14.2504 0.374145 14.2228 0 14.1692V16.8106Z" fill="#2F302C"/>
<path d="M0 12.8448C0.373013 12.9062 0.754332 12.9379 1.1421 12.9379C5.55747 12.9379 9.13684 8.82451 9.13684 3.7504C9.13684 3.75052 9.13684 3.75028 9.13684 3.7504L6.85263 3.75004C6.85263 3.75016 6.85263 3.74991 6.85263 3.75004C6.85263 7.3744 4.29594 10.3129 1.1421 10.3129C0.75097 10.3129 0.369024 10.2677 0 10.1816V12.8448Z" fill="#2F302C"/>
<path d="M0 8.835C0.365038 8.94297 0.747733 9.00039 1.1421 9.00039C3.66517 9.00039 5.71052 6.64989 5.71052 3.7504C5.71052 3.75028 5.71052 3.75052 5.71052 3.7504L0 3.75004V8.835Z" fill="#2F302C"/>
<path d="M22.8421 11.9697C22.6094 12.7816 22.3432 13.5759 22.0453 14.3506C22.3136 14.387 22.5793 14.433 22.8421 14.4885V11.9697Z" fill="#2F302C"/>
<path d="M22.8421 15.8255C22.4116 15.7251 21.9724 15.6525 21.5258 15.6094C21.1319 16.5019 20.6949 17.365 20.218 18.1951C20.3308 18.1904 20.4441 18.188 20.5579 18.188C21.3466 18.188 22.112 18.3028 22.8421 18.5188V15.8255Z" fill="#2F302C"/>
<path d="M11.4917 30H9.19319C9.15592 29.5685 9.13684 29.1308 9.13684 28.688C9.13684 28.5737 9.13811 28.4597 9.14064 28.3461C9.95673 27.9955 10.7507 27.5927 11.5195 27.1414C11.4546 27.6461 11.421 28.1625 11.421 28.688C11.421 29.1323 11.4451 29.5702 11.4917 30Z" fill="#2F302C"/>
<path d="M22.8421 19.8809C22.1183 19.6334 21.3516 19.5005 20.5579 19.5005C20.1469 19.5005 19.7432 19.5361 19.3489 19.6048C17.5758 22.2897 15.3634 24.5704 12.8346 26.3053C12.6576 27.0652 12.5632 27.8639 12.5632 28.688C12.5632 29.1334 12.5907 29.5715 12.6441 30H14.9615C14.8867 29.5761 14.8474 29.1373 14.8474 28.688C14.8474 25.0636 17.4041 22.1255 20.5579 22.1255C21.37 22.1255 22.1426 22.3203 22.8421 22.6715V19.8809Z" fill="#2F302C"/>
<path d="M22.8421 24.1403C22.1702 23.6936 21.39 23.438 20.5579 23.438C18.0348 23.438 15.9895 25.7885 15.9895 28.688C15.9895 29.141 16.0394 29.5806 16.1333 30H22.8421V24.1403Z" fill="#2F302C"/>
<path d="M8.04591 30H5.75377C5.74217 29.8247 5.73287 29.6486 5.72591 29.4718C6.49715 29.2912 7.25425 29.066 7.9951 28.7986C7.99774 29.2032 8.01487 29.6039 8.04591 30Z" fill="#2F302C"/>
<path d="M4.60855 30C4.60248 29.9012 4.5971 29.8022 4.5924 29.7029C3.84536 29.833 3.08645 29.9215 2.31751 29.9663C2.31809 29.9775 2.31869 29.9888 2.31929 30H4.60855Z" fill="#2F302C"/>
<path d="M1.00683 30C0.669438 29.9978 0.333777 29.9871 0 29.9682V30H1.00683Z" fill="#2F302C"/>
<g clip-path="url(#clip0_11_725)">
<path d="M118.408 2.1875H119.36V4.92187H119.836V2.1875H120.788V1.64062H118.408V2.1875Z" fill="black"/>
<path d="M123.286 1.64062L122.572 3.0625L121.859 1.64062H121.264V4.92187H121.74V2.48828L122.572 4.15625L123.405 2.48828V4.92187H123.881V1.64062H123.286Z" fill="black"/>
</g>
<defs>
<clipPath id="clip0_11_725">
<rect width="5.71053" height="6.56249" fill="white" transform="translate(118.289)"/>
</clipPath>
</defs>
</svg>
