<svg width="55" height="55" viewBox="0 0 55 55" fill="none" xmlns="http://www.w3.org/2000/svg">
<path d="M27.4956 0H27.444C20.1654 0 13.1849 2.89141 8.03816 8.03816C2.89141 13.1849 0 20.1654 0 27.444C0 34.7226 2.89141 41.7031 8.03816 46.8498C13.1849 51.9966 20.1654 54.888 27.444 54.888C27.6827 54.888 27.9116 54.7932 28.0804 54.6244C28.2492 54.4556 28.344 54.2267 28.344 53.988C28.344 53.7493 28.2492 53.5204 28.0804 53.3516C27.9116 53.1828 27.6827 53.088 27.444 53.088C20.6428 53.088 14.1201 50.3862 9.31095 45.577C4.50177 40.7679 1.8 34.2452 1.8 27.444C1.8 20.6428 4.50177 14.1201 9.31095 9.31095C14.1201 4.50177 20.6428 1.8 27.444 1.8H27.4926C32.1746 1.80922 36.7647 3.09996 40.7654 5.53226C44.766 7.96457 48.0245 11.4456 50.1875 15.598C52.3506 19.7505 53.3356 24.4158 53.0359 29.0882C52.7361 33.7606 51.1631 38.2618 48.4872 42.1038C48.0914 42.6698 47.576 43.1419 46.9776 43.4866C46.3791 43.8314 45.7122 44.0404 45.024 44.0988C44.3222 44.1604 43.6154 44.0675 42.9534 43.8267C42.2913 43.5859 41.69 43.203 41.1918 42.705L40.344 41.8542C40.6704 41.6592 40.9914 41.451 41.304 41.2266C41.9343 40.7848 42.5247 40.2887 43.0686 39.744H43.0716C43.5352 39.2736 43.7942 38.6392 43.7923 37.9788C43.7904 37.3184 43.5277 36.6855 43.0614 36.2178L38.4006 31.5624C37.9322 31.0953 37.2978 30.833 36.6363 30.833C35.9748 30.833 35.3404 31.0953 34.872 31.5624L34.176 32.256C33.9471 32.4831 33.6961 32.6868 33.4266 32.8638C32.5319 33.4423 31.4662 33.6975 30.4065 33.5869C29.3467 33.4764 28.3567 33.0068 27.6006 32.256L21.51 26.1654C20.9375 25.5873 20.6169 24.8063 20.618 23.9928C20.6191 23.1792 20.9419 22.3991 21.516 21.8226L23.3256 20.004C23.5579 19.7729 23.7422 19.4983 23.868 19.1957C23.9938 18.8932 24.0585 18.5688 24.0585 18.2412C24.0585 17.9136 23.9938 17.5892 23.868 17.2867C23.7422 16.9841 23.5579 16.7095 23.3256 16.4784L18.6726 11.826C18.4423 11.5921 18.1675 11.4066 17.8645 11.2804C17.5614 11.1542 17.2363 11.0898 16.908 11.091C16.282 11.0886 15.6785 11.3246 15.2202 11.751C15.1924 11.7728 15.166 11.7962 15.141 11.8212C14.6006 12.3622 14.1069 12.9479 13.665 13.572C11.9429 15.9728 11.036 18.8625 11.0775 21.8167C11.1189 24.771 12.1066 27.6341 13.8954 29.9856C17.0365 34.1489 20.7437 37.8531 24.9096 40.9908C27.3188 42.8168 30.2579 43.8069 33.2808 43.8108C35.1268 43.8087 36.9535 43.4343 38.6514 42.7098L39.9186 43.9788C40.6017 44.6643 41.4272 45.1912 42.3367 45.522C43.2462 45.8527 44.2173 45.9793 45.1812 45.8928C46.1319 45.8114 47.053 45.522 47.8794 45.045C48.7058 44.5681 49.4172 43.9153 49.9632 43.1328C52.8274 39.0213 54.5113 34.2041 54.8323 29.2036C55.1534 24.2031 54.0993 19.2101 51.7844 14.7661C49.4696 10.3221 45.9822 6.59659 41.7006 3.99361C37.4189 1.39064 32.5064 0.00951119 27.4956 0ZM25.9956 39.5532C21.9633 36.518 18.3748 32.9344 15.3342 28.9062C13.8896 27.0059 13.0437 24.7185 12.9041 22.3356C12.7646 19.9526 13.3377 17.5821 14.5506 15.5262L17.8824 18.8586C18.0512 19.0274 18.2802 19.1223 18.519 19.1223C18.7578 19.1223 18.9868 19.0274 19.1556 18.8586C19.3244 18.6898 19.4193 18.4608 19.4193 18.222C19.4193 17.9832 19.3244 17.7542 19.1556 17.5854L15.5946 14.022C15.8346 13.722 16.0866 13.4322 16.3572 13.1574C16.3813 13.1386 16.4043 13.1186 16.4262 13.0974C16.5572 12.9714 16.7321 12.9013 16.9138 12.902C17.0956 12.9026 17.2699 12.974 17.4 13.101L22.056 17.757C22.1209 17.8215 22.1724 17.8983 22.2074 17.9828C22.2424 18.0674 22.2603 18.1581 22.26 18.2496C22.2599 18.3398 22.2418 18.4291 22.2068 18.5122C22.1717 18.5954 22.1205 18.6707 22.056 18.7338L20.235 20.5602C19.3272 21.475 18.8179 22.7115 18.8179 24.0003C18.8179 25.2891 19.3272 26.5256 20.235 27.4404L26.328 33.5286C27.287 34.4793 28.5191 35.1066 29.852 35.323C31.1849 35.5393 32.5521 35.3338 33.7626 34.7352L37.4226 38.3952C37.5923 38.5591 37.8197 38.6499 38.0557 38.6478C38.2916 38.6458 38.5174 38.5511 38.6842 38.3842C38.8511 38.2174 38.9458 37.9916 38.9478 37.7557C38.9499 37.5197 38.8591 37.2923 38.6952 37.1226L35.268 33.6954C35.328 33.6402 35.3934 33.588 35.448 33.531L36.144 32.832C36.2746 32.7017 36.4515 32.6285 36.636 32.6285C36.8205 32.6285 36.9974 32.7017 37.128 32.832L41.7888 37.4874C41.9191 37.6179 41.9926 37.7946 41.9935 37.979C41.9944 38.1634 41.9226 38.3408 41.7936 38.4726C41.3221 38.9444 40.8102 39.3738 40.2636 39.756C38.1763 41.2536 35.6637 42.0421 33.095 42.0056C30.5263 41.9691 28.0371 41.1095 25.9932 39.5532H25.9956Z" fill="black"/>
</svg>
