<svg width="55" height="55" viewBox="0 0 55 55" fill="none" xmlns="http://www.w3.org/2000/svg">
<path d="M53.8566 13.2239L27.6066 0.0988745C27.4765 0.0338509 27.333 0 27.1875 0C27.042 0 26.8986 0.0338509 26.7685 0.0988745L0.518451 13.2239C0.362608 13.3017 0.231547 13.4215 0.139973 13.5697C0.0483982 13.7179 -6.72113e-05 13.8887 1.3972e-05 14.0629V40.3129C-0.000941366 40.4879 0.0471121 40.6597 0.138735 40.8089C0.230359 40.958 0.361893 41.0785 0.518451 41.1567L26.7685 54.2817C26.8986 54.3467 27.042 54.3806 27.1875 54.3806C27.333 54.3806 27.4765 54.3467 27.6066 54.2817L53.8566 41.1567C54.0131 41.0785 54.1447 40.958 54.2363 40.8089C54.3279 40.6597 54.376 40.4879 54.375 40.3129V14.0629C54.3751 13.8887 54.3266 13.7179 54.2351 13.5697C54.1435 13.4215 54.0124 13.3017 53.8566 13.2239ZM27.1875 26.1398L19.8591 22.4751L43.2835 10.0317L51.346 14.0629L27.1875 26.1398ZM12.3591 18.7251L35.7835 6.28169L41.221 9.00044L17.7994 21.4457L12.3591 18.7251ZM11.25 20.2673L16.875 23.0798V30.5498L14.7253 28.4001C14.5496 28.2243 14.3111 28.1255 14.0625 28.1254H11.25V20.2673ZM27.1875 1.98606L33.7238 5.25044L10.2994 17.6957L3.03376 14.0629L27.1875 1.98606ZM1.87501 15.5798L9.37502 19.3298V29.0629C9.37502 29.3116 9.47379 29.55 9.6496 29.7258C9.82542 29.9017 10.0639 30.0004 10.3125 30.0004H13.6744L17.1497 33.4757C17.2808 33.6068 17.4478 33.6961 17.6297 33.7322C17.8115 33.7684 18 33.7498 18.1713 33.6789C18.3425 33.6079 18.4889 33.4878 18.592 33.3337C18.695 33.1795 18.75 32.9983 18.75 32.8129V24.0173L26.25 27.7673V51.9211L1.87501 39.7336V15.5798ZM28.125 51.9211V27.7673L52.5 15.5798V39.7336L28.125 51.9211Z" fill="black"/>
</svg>
