<svg width="54" height="44" viewBox="0 0 54 44" fill="none" xmlns="http://www.w3.org/2000/svg">
<path d="M51.41 6.88136L12.7332 0.0474205C11.0383 -0.254546 9.39169 0.920105 9.09773 2.58998L6.60675 16.7453H3.0484C1.36743 16.7453 0 18.1003 0 19.765V40.9803C0 42.645 1.36743 44 3.0484 44H42.4978C44.1787 44 45.5462 42.645 45.5462 40.9803V33.5205C46.6762 33.7202 47.7671 33.9557 48.8119 33.3367C49.5957 32.8721 50.158 32.071 50.3152 31.1785L53.9523 10.5084C54.2515 8.80834 53.111 7.18117 51.41 6.88136ZM10.814 2.88634C10.9446 2.1448 11.671 1.61204 12.4275 1.74577L51.1043 8.57971C51.8633 8.71387 52.3711 9.44592 52.2365 10.2116L51.6364 13.6239L10.2121 6.30504L10.814 2.88634ZM43.8042 40.9803C43.8042 41.6938 43.218 42.2745 42.4978 42.2745H3.0484C2.32811 42.2745 1.74194 41.6938 1.74194 40.9803V19.765C1.74194 19.0515 2.32811 18.4709 3.0484 18.4709H42.4978C43.218 18.4709 43.8042 19.0515 43.8042 19.765V40.9803ZM48.5993 30.8821C48.3285 32.4165 46.6083 31.9554 45.5462 31.7677V19.765C45.5462 18.1003 44.1787 16.7453 42.4978 16.7453H8.37526L9.91296 8.00468L12.4362 8.4503L51.3368 15.3235L48.5993 30.8821Z" fill="black"/>
</svg>
