<svg width="50" height="60" viewBox="0 0 50 60" fill="none" xmlns="http://www.w3.org/2000/svg">
<path d="M40.8225 24.082C40.8225 15.1758 33.5803 7.93359 24.6741 7.93359C15.7678 7.93359 8.52563 15.1758 8.52563 24.082C8.52563 32.9883 15.7678 40.2305 24.6741 40.2305C33.5803 40.2305 40.8225 32.9883 40.8225 24.082ZM24.6741 38.5195C16.7053 38.5195 10.2366 32.0391 10.2366 24.082C10.2366 16.1133 16.717 9.64453 24.6741 9.64453C32.6428 9.64453 39.1116 16.125 39.1116 24.082C39.1116 32.0391 32.6311 38.5195 24.6741 38.5195Z" fill="black"/>
<path d="M20.5608 23.4258C22.6233 23.4258 24.2874 21.75 24.2874 19.6992C24.2874 17.6484 22.6116 15.9727 20.5608 15.9727C18.51 15.9727 16.8342 17.6484 16.8342 19.6992C16.8342 21.75 18.4983 23.4258 20.5608 23.4258ZM20.5608 17.6719C21.6741 17.6719 22.5881 18.5742 22.5881 19.6992C22.5881 20.8242 21.6858 21.7266 20.5608 21.7266C19.4358 21.7266 18.5334 20.8242 18.5334 19.6992C18.5334 18.5742 19.4358 17.6719 20.5608 17.6719Z" fill="black"/>
<path d="M31.5178 16.8163C31.5178 16.5702 31.4124 16.3241 31.2014 16.1601C30.8381 15.8554 30.2991 15.914 29.9944 16.2773L18.0413 30.7968C17.9124 30.9609 17.842 31.1484 17.842 31.3359C17.842 31.582 17.9475 31.8281 18.1584 31.9921C18.3225 32.121 18.51 32.1913 18.6975 32.1913C18.9436 32.1913 19.1897 32.0859 19.3538 31.8749L31.3186 17.3437C31.4475 17.2031 31.5178 17.0038 31.5178 16.8163Z" fill="black"/>
<path d="M28.7874 24.7383C26.7249 24.7383 25.0608 26.4141 25.0608 28.4648C25.0608 30.5156 26.7366 32.1914 28.7874 32.1914C30.8499 32.1914 32.5139 30.5156 32.5139 28.4648C32.5139 26.4141 30.8499 24.7383 28.7874 24.7383ZM28.7874 30.4922C27.6741 30.4922 26.76 29.5898 26.76 28.4648C26.76 27.3516 27.6624 26.4375 28.7874 26.4375C29.9124 26.4375 30.8147 27.3398 30.8147 28.4648C30.8147 29.5781 29.9006 30.4922 28.7874 30.4922Z" fill="black"/>
<path d="M49.1077 53.2734L40.9749 39.0703C41.303 38.8828 41.6546 38.7422 42.0296 38.6602C43.4944 38.3438 44.7718 37.418 45.5218 36.1172C46.2718 34.8164 46.4358 33.2461 45.9788 31.8164C45.5452 30.4688 45.9436 28.9805 46.9983 28.0195C48.1116 27.0117 48.7561 25.5703 48.7561 24.0703C48.7561 22.5703 48.1116 21.1289 46.9983 20.1211C45.9436 19.1719 45.5452 17.6836 45.9788 16.3242C46.4358 14.8945 46.2718 13.3242 45.5218 12.0234C44.7718 10.7227 43.4944 9.79688 42.0296 9.48047C40.6351 9.1875 39.5452 8.09766 39.2522 6.70312C38.9358 5.23828 38.0101 3.96094 36.7093 3.21094C35.4085 2.46094 33.8382 2.29688 32.4085 2.75391C31.0608 3.1875 29.5726 2.78906 28.6116 1.73438C27.6038 0.621094 26.1624 -0.0234375 24.6624 -0.0234375C23.1624 -0.0234375 21.721 0.621094 20.7132 1.73438C19.764 2.78906 18.2757 3.1875 16.9163 2.75391C15.4866 2.29688 13.9163 2.46094 12.6155 3.21094C11.3147 3.96094 10.389 5.23828 10.0726 6.70312C9.79131 8.10938 8.70146 9.19922 7.30693 9.49219C5.84209 9.80859 4.56475 10.7344 3.81475 12.0352C3.06475 13.3359 2.90068 14.9062 3.35771 16.3359C3.79131 17.6836 3.39287 19.1719 2.33818 20.1328C1.2249 21.1406 0.58037 22.582 0.58037 24.082C0.58037 25.582 1.2249 27.0234 2.33818 28.0312C3.39287 28.9805 3.79131 30.4688 3.35771 31.8281C2.90068 33.2578 3.06475 34.8281 3.81475 36.1289C4.56475 37.4297 5.84209 38.3555 7.30693 38.6719C7.64678 38.7422 7.9749 38.8711 8.26787 39.0352L0.11162 53.2734C-0.0641608 53.5781 -0.0290045 53.9648 0.193652 54.2344C0.416308 54.5039 0.791308 54.6211 1.11943 54.5039L8.09209 52.1836L9.79131 59.3438C9.87334 59.6836 10.1546 59.9414 10.4944 59.9883C10.5413 60 10.5765 60 10.6116 60C10.9163 60 11.1976 59.8359 11.3499 59.5664L19.4241 45.4922C19.9046 45.6914 20.3499 45.9961 20.7132 46.4062C21.721 47.5195 23.1624 48.1641 24.6624 48.1641C26.1624 48.1641 27.6038 47.5195 28.6116 46.4062C28.9515 46.0312 29.3616 45.7383 29.7952 45.5391L37.8343 59.5664C37.9866 59.8359 38.2679 60 38.5726 60C38.6077 60 38.6546 60 38.6897 59.9883C39.0413 59.9414 39.3226 59.6836 39.3929 59.3438L41.0921 52.1836L48.0647 54.5039C48.4046 54.6211 48.7679 54.5039 48.9905 54.2344C49.2601 53.9648 49.2835 53.5781 49.1077 53.2734ZM10.9515 56.8477L9.53349 50.8828C9.4749 50.6484 9.32256 50.4492 9.12334 50.332C8.9124 50.2148 8.66631 50.1914 8.44365 50.2734L2.70146 52.1836L9.56865 40.207C9.81474 40.582 9.99053 40.9922 10.0843 41.4375C10.4007 42.9023 11.3265 44.1797 12.6272 44.9297C13.928 45.6797 15.4983 45.8438 16.928 45.3867C17.1507 45.3164 17.3851 45.2695 17.6077 45.2344L10.9515 56.8477ZM27.3577 45.2578C26.678 46.0195 25.6937 46.4531 24.6741 46.4531C23.6546 46.4531 22.6819 46.0195 21.9905 45.2578C21.264 44.4492 20.3147 43.8984 19.2952 43.6523C19.2601 43.6406 19.2132 43.6289 19.178 43.6289C18.803 43.5469 18.4163 43.5 18.0413 43.5C17.4905 43.5 16.9397 43.582 16.4124 43.7578C15.4397 44.0742 14.3733 43.957 13.4944 43.4531C12.6155 42.9375 11.9827 42.082 11.7718 41.0859C11.5257 39.9141 10.8812 38.8828 10.0022 38.1445C9.97881 38.1211 9.95537 38.1094 9.93193 38.0859C9.2874 37.5586 8.52568 37.1836 7.68193 36.9961C6.68584 36.7852 5.81865 36.1523 5.31475 35.2734C4.79912 34.3945 4.69365 33.3281 5.01006 32.3555C5.65459 30.3633 5.06865 28.1719 3.51006 26.7656C2.74834 26.0859 2.31475 25.1016 2.31475 24.082C2.31475 23.0625 2.74834 22.0898 3.51006 21.3984C5.06865 19.9922 5.65459 17.8008 5.01006 15.8086C4.69365 14.8359 4.81084 13.7695 5.31475 12.8906C5.83037 12.0117 6.68584 11.3789 7.68193 11.168C9.73271 10.7344 11.3382 9.12891 11.7718 7.07813C11.9827 6.08203 12.6155 5.21484 13.4944 4.71094C14.3733 4.19531 15.4397 4.08984 16.4124 4.40625C18.4046 5.05078 20.596 4.46484 22.0022 2.90625C22.6819 2.14453 23.6663 1.71094 24.6858 1.71094C25.7054 1.71094 26.678 2.14453 27.3694 2.90625C28.7757 4.46484 30.9671 5.05078 32.9593 4.40625C33.9319 4.08984 34.9983 4.20703 35.8772 4.71094C36.7562 5.22656 37.389 6.08203 37.5999 7.07813C38.0335 9.12891 39.639 10.7344 41.6897 11.168C42.6858 11.3789 43.553 12.0117 44.0569 12.8906C44.5726 13.7695 44.678 14.8359 44.3616 15.8086C43.7171 17.8008 44.303 19.9922 45.8616 21.3984C46.6233 22.0781 47.0569 23.0625 47.0569 24.082C47.0569 25.1016 46.6233 26.0742 45.8616 26.7656C44.303 28.1719 43.7171 30.3633 44.3616 32.3555C44.678 33.3281 44.5608 34.3945 44.0569 35.2734C43.5413 36.1523 42.6858 36.7852 41.6897 36.9961C40.7991 37.1836 39.9788 37.6055 39.3226 38.1797C39.3108 38.1914 39.2874 38.2031 39.2757 38.2266C38.4437 38.9648 37.846 39.9609 37.5999 41.0859C37.389 42.082 36.7562 42.9492 35.8772 43.4531C34.9983 43.9688 33.9319 44.0742 32.9593 43.7578C31.9983 43.4531 31.0022 43.4297 30.053 43.6523C30.0179 43.6641 29.9827 43.6641 29.9476 43.6758C28.9632 43.9453 28.0608 44.4844 27.3577 45.2578ZM40.7757 50.2734C40.553 50.2031 40.2952 50.2266 40.096 50.332C39.8851 50.4492 39.7327 50.6484 39.6858 50.8828L38.2679 56.8477L31.5999 45.2227C31.8694 45.2461 32.1507 45.293 32.4202 45.3867C33.8499 45.8438 35.4202 45.6797 36.721 44.9297C38.0218 44.1797 38.9476 42.9023 39.264 41.4375C39.346 41.0273 39.5101 40.6523 39.721 40.3008L46.5179 52.1836L40.7757 50.2734Z" fill="black"/>
</svg>
